<svg xmlns="http://www.w3.org/2000/svg" xmlns:xlink="http://www.w3.org/1999/xlink" zoomAndPan="magnify" preserveAspectRatio="xMidYMid meet" version="1.0" viewBox="14.62 165.25 270.78 44.27"><defs><g/><clipPath id="6e36c27c1d"><path d="M 14.648438 165.261719 L 73.898438 165.261719 L 73.898438 209.511719 L 14.648438 209.511719 Z M 14.648438 165.261719 " clip-rule="nonzero"/></clipPath></defs><g clip-path="url(#6e36c27c1d)"><path fill="#ffffff" d="M 44.273438 165.261719 L 39.335938 209.511719 L 44.273438 209.511719 L 49.210938 165.261719 Z M 28.738281 173.359375 L 14.648438 187.386719 L 28.738281 201.417969 L 32.230469 197.941406 L 21.632812 187.386719 L 32.230469 176.835938 Z M 59.808594 173.359375 L 56.320312 176.835938 L 66.917969 187.386719 L 56.320312 197.941406 L 59.808594 201.417969 L 73.898438 187.386719 Z M 59.808594 173.359375 " fill-opacity="1" fill-rule="nonzero"/></g><g fill="#a5d7e8" fill-opacity="1"><g transform="translate(86.867047, 198.374987)"><g><path d="M 25.339844 -4.652344 L 17.988281 -31.285156 L 10.128906 -31.285156 C 10.480469 -30.148438 10.402344 -29.601562 10.128906 -28.507812 L 3.480469 -4.222656 C 3.089844 -2.777344 2.894531 -1.917969 1.957031 0 L 3.480469 0 C 3.597656 -1.839844 3.949219 -2.777344 4.339844 -4.261719 L 6.21875 -11.183594 L 16.542969 -11.183594 L 18.339844 -4.652344 C 18.847656 -2.777344 19.121094 -1.957031 19.199219 0 L 27.179688 0 C 26.316406 -1.5625 25.886719 -2.582031 25.339844 -4.652344 Z M 6.453125 -12.003906 L 11.339844 -29.914062 L 16.308594 -12.003906 Z M 6.453125 -12.003906 "/></g></g></g><g fill="#a5d7e8" fill-opacity="1"><g transform="translate(114.03655, 198.374987)"><g><path d="M 16.621094 -19.667969 C 13.140625 -19.667969 10.480469 -18.105469 8.40625 -15.679688 L 8.40625 -23.148438 C 8.40625 -25.886719 8.40625 -27.414062 8.835938 -31.285156 L 2.308594 -31.285156 C 2.699219 -27.414062 2.699219 -25.886719 2.699219 -23.148438 L 2.699219 0 L 8.796875 0 C 8.523438 -1.800781 8.445312 -3.011719 8.40625 -4.652344 C 9.425781 -1.523438 11.847656 0.78125 16.230469 0.78125 C 21.117188 0.78125 26.082031 -2.113281 26.082031 -9.425781 C 26.082031 -16.738281 20.921875 -19.667969 16.621094 -19.667969 Z M 14.234375 -0.703125 C 10.832031 -0.703125 8.40625 -3.597656 8.40625 -8.757812 L 8.40625 -14.507812 C 10.011719 -16.621094 12.316406 -18.378906 14.78125 -18.378906 C 17.832031 -18.378906 19.867188 -15.445312 19.867188 -9.425781 C 19.867188 -4.613281 18.261719 -0.703125 14.234375 -0.703125 Z M 14.234375 -0.703125 "/></g></g></g><g fill="#a5d7e8" fill-opacity="1"><g transform="translate(139.876855, 198.374987)"><g><path d="M 14.078125 0.78125 C 21.117188 0.78125 26.433594 -2.894531 26.433594 -9.425781 C 26.433594 -15.953125 21.117188 -19.667969 14.078125 -19.667969 C 7.078125 -19.667969 1.71875 -15.953125 1.71875 -9.425781 C 1.71875 -2.894531 7.078125 0.78125 14.078125 0.78125 Z M 14.078125 -0.0390625 C 10.050781 -0.0390625 7.976562 -3.285156 7.976562 -9.425781 C 7.976562 -15.601562 10.050781 -18.808594 14.078125 -18.808594 C 18.144531 -18.808594 20.21875 -15.601562 20.21875 -9.425781 C 20.21875 -3.285156 18.144531 -0.0390625 14.078125 -0.0390625 Z M 14.078125 -0.0390625 "/></g></g></g><g fill="#a5d7e8" fill-opacity="1"><g transform="translate(166.108102, 198.374987)"><g><path d="M 16.660156 -18.886719 C 17.167969 -15.015625 17.167969 -13.453125 17.167969 -10.714844 L 17.167969 -5.476562 C 15.757812 -2.699219 13.84375 -0.703125 11.378906 -0.703125 C 9.347656 -0.703125 8.523438 -2.230469 8.523438 -4.964844 L 8.523438 -18.886719 L 2.308594 -18.886719 C 2.816406 -15.015625 2.816406 -13.453125 2.816406 -10.714844 L 2.816406 -6.960938 C 2.816406 -1.328125 5.160156 0.78125 9.152344 0.78125 C 13.179688 0.78125 15.601562 -1.523438 17.089844 -4.183594 C 17.050781 -3.050781 16.933594 -1.757812 16.738281 0 L 22.875 0 L 22.875 -18.886719 Z M 16.660156 -18.886719 "/></g></g></g><g fill="#a5d7e8" fill-opacity="1"><g transform="translate(189.329129, 198.374987)"><g><path d="M 16.347656 -7.976562 C 15.5625 -2.621094 14.273438 -0.507812 12.550781 -0.507812 C 11.105469 -0.507812 10.480469 -1.640625 10.480469 -5.003906 L 10.480469 -18.027344 L 16.191406 -18.027344 L 16.191406 -18.886719 L 6.492188 -18.886719 C 10.402344 -20.453125 11.261719 -23.894531 11.261719 -27.21875 L 6.453125 -27.21875 C 6.453125 -22.757812 6.570312 -18.886719 1.171875 -18.886719 L 0.546875 -18.886719 L 0.546875 -18.027344 L 4.769531 -18.027344 L 4.769531 -5.867188 C 4.769531 -1.289062 6.335938 0.976562 10.441406 0.976562 C 14 0.976562 16.070312 -1.015625 17.050781 -7.976562 Z M 16.347656 -7.976562 "/></g></g></g><g fill="#a5d7e8" fill-opacity="1"><g transform="translate(205.786945, 198.374987)"><g/></g></g><g fill="#a5d7e8" fill-opacity="1"><g transform="translate(215.207881, 198.374987)"><g><path d="M 2.738281 0 L 4.417969 0 C 4.105469 -2.972656 3.988281 -4.730469 3.988281 -8.367188 L 3.988281 -29.289062 L 17.089844 0.78125 L 18.300781 0.78125 L 30.460938 -29.40625 L 30.460938 -8.367188 C 30.460938 -4.730469 30.34375 -2.972656 30.070312 0 L 37.460938 0 C 37.148438 -2.972656 37.070312 -4.730469 37.070312 -8.367188 L 37.070312 -22.914062 C 37.070312 -26.550781 37.148438 -28.3125 37.460938 -31.285156 L 30.382812 -31.285156 L 20.765625 -8.054688 L 10.441406 -31.285156 L 2.738281 -31.285156 C 3.050781 -28.3125 3.167969 -26.550781 3.167969 -22.914062 L 3.167969 -8.367188 C 3.167969 -4.730469 3.050781 -2.972656 2.738281 0 Z M 2.738281 0 "/></g></g></g><g fill="#a5d7e8" fill-opacity="1"><g transform="translate(253.440896, 198.374987)"><g><path d="M 23.304688 -7.3125 C 21.78125 -2.738281 18.769531 -0.703125 15.328125 -0.703125 C 10.441406 -0.703125 7.976562 -4.886719 7.976562 -9.894531 C 7.976562 -10.441406 7.976562 -10.949219 8.015625 -11.457031 L 23.109375 -11.457031 C 23.03125 -15.835938 19.394531 -19.667969 13.101562 -19.667969 C 7.273438 -19.667969 1.71875 -16.03125 1.71875 -9.425781 C 1.71875 -2.855469 7.15625 0.78125 13.492188 0.78125 C 19.238281 0.78125 22.523438 -2.308594 24.011719 -7.3125 Z M 13.023438 -18.808594 C 15.875 -18.808594 17.089844 -16.230469 17.089844 -12.316406 L 8.09375 -12.316406 C 8.5625 -16.660156 10.402344 -18.808594 13.023438 -18.808594 Z M 13.023438 -18.808594 "/></g></g></g><g fill="#a5d7e8" fill-opacity="1"><g transform="translate(276.857406, 198.374987)"><g><path d="M 5.632812 0.78125 L 8.523438 -2.113281 L 5.632812 -5.003906 L 2.738281 -2.113281 Z M 5.632812 0.78125 "/></g></g></g></svg>