<svg xmlns="http://www.w3.org/2000/svg" xmlns:xlink="http://www.w3.org/1999/xlink" zoomAndPan="magnify" preserveAspectRatio="xMidYMid meet" version="1.0" viewBox="14.62 165.25 223.08 34.52"><defs><g/><clipPath id="14e18bfda4"><path d="M 14.648438 165.261719 L 61.148438 165.261719 L 61.148438 199.761719 L 14.648438 199.761719 Z M 14.648438 165.261719 " clip-rule="nonzero"/></clipPath></defs><g clip-path="url(#14e18bfda4)"><path fill="#ffffff" d="M 37.898438 165.265625 L 34.023438 199.761719 L 37.898438 199.761719 L 41.773438 165.265625 Z M 25.707031 171.574219 L 14.648438 182.511719 L 25.707031 193.449219 L 28.445312 190.742188 L 20.128906 182.511719 L 28.445312 174.285156 Z M 50.09375 171.574219 L 47.351562 174.285156 L 55.667969 182.511719 L 47.351562 190.742188 L 50.09375 193.449219 L 61.148438 182.511719 Z M 50.09375 171.574219 " fill-opacity="1" fill-rule="nonzero"/></g><g fill="#a5d7e8" fill-opacity="1"><g transform="translate(60.977955, 190.136632)"><g><path d="M 32.386719 -23.28125 C 32.273438 -21.914062 32.039062 -21.214844 31.71875 -20.109375 L 26.511719 -1.019531 L 21.332031 -19.816406 C 20.921875 -21.214844 20.75 -21.824219 20.660156 -23.28125 L 14.753906 -23.28125 C 15.363281 -22.117188 15.683594 -21.359375 16.121094 -19.816406 L 17.257812 -15.714844 L 13.242188 -1.019531 L 8.03125 -19.816406 C 7.625 -21.214844 7.449219 -21.824219 7.363281 -23.28125 L 1.453125 -23.28125 C 2.066406 -22.117188 2.386719 -21.359375 2.824219 -19.816406 L 8.292969 0 L 14.113281 0 C 13.851562 -0.84375 13.910156 -1.25 14.113281 -2.066406 L 17.546875 -14.609375 L 21.5625 0 L 27.414062 0 C 27.148438 -0.84375 27.207031 -1.25 27.414062 -2.066406 L 32.359375 -20.136719 C 32.679688 -21.214844 32.796875 -21.855469 33.492188 -23.28125 Z M 32.386719 -23.28125 "/></g></g></g><g fill="#a5d7e8" fill-opacity="1"><g transform="translate(94.818086, 190.136632)"><g><path d="M 12.425781 0 L 17.285156 0 C 16.964844 -2.882812 16.964844 -4.015625 16.964844 -6.054688 L 16.964844 -8.847656 C 16.964844 -13.035156 15.21875 -14.636719 12.25 -14.636719 C 9.226562 -14.636719 7.390625 -12.863281 6.257812 -10.855469 L 6.257812 -17.050781 C 6.257812 -19.089844 6.257812 -20.660156 6.578125 -23.28125 L 1.71875 -23.28125 C 2.007812 -20.660156 2.007812 -19.089844 2.007812 -17.050781 L 2.007812 -6.226562 C 2.007812 -4.191406 2.007812 -2.617188 1.71875 0 L 6.578125 0 C 6.257812 -2.617188 6.257812 -4.191406 6.257812 -6.226562 L 6.257812 -9.863281 C 7.304688 -11.929688 8.757812 -13.503906 10.59375 -13.503906 C 12.078125 -13.503906 12.714844 -12.398438 12.714844 -10.359375 L 12.714844 -6.054688 C 12.714844 -4.015625 12.714844 -2.882812 12.425781 0 Z M 12.425781 0 "/></g></g></g><g fill="#a5d7e8" fill-opacity="1"><g transform="translate(112.363526, 190.136632)"><g><path d="M 10.476562 0.582031 C 15.714844 0.582031 19.671875 -2.152344 19.671875 -7.011719 C 19.671875 -11.871094 15.714844 -14.636719 10.476562 -14.636719 C 5.265625 -14.636719 1.28125 -11.871094 1.28125 -7.011719 C 1.28125 -2.152344 5.265625 0.582031 10.476562 0.582031 Z M 10.476562 -0.0273438 C 7.480469 -0.0273438 5.9375 -2.445312 5.9375 -7.011719 C 5.9375 -11.609375 7.480469 -13.996094 10.476562 -13.996094 C 13.503906 -13.996094 15.042969 -11.609375 15.042969 -7.011719 C 15.042969 -2.445312 13.503906 -0.0273438 10.476562 -0.0273438 Z M 10.476562 -0.0273438 "/></g></g></g><g fill="#a5d7e8" fill-opacity="1"><g transform="translate(131.887602, 190.136632)"><g/></g></g><g fill="#a5d7e8" fill-opacity="1"><g transform="translate(138.899683, 190.136632)"><g><path d="M 2.035156 -23.28125 C 2.269531 -21.070312 2.355469 -19.757812 2.355469 -17.050781 L 2.355469 -6.226562 C 2.355469 -3.519531 2.269531 -2.210938 2.035156 0 L 7.566406 0 C 7.332031 -2.210938 7.246094 -3.519531 7.246094 -6.226562 L 7.246094 -17.050781 C 7.246094 -19.757812 7.332031 -21.070312 7.566406 -23.28125 Z M 2.035156 -23.28125 "/></g></g></g><g fill="#a5d7e8" fill-opacity="1"><g transform="translate(147.046571, 190.136632)"><g><path d="M 0.988281 -3.871094 C 1.773438 -0.929688 4.539062 0.582031 8.175781 0.582031 C 11.988281 0.582031 14.433594 -1.136719 14.433594 -3.78125 C 14.433594 -6.664062 11.902344 -7.652344 8.90625 -9.019531 C 6.082031 -10.332031 5.003906 -11 5.003906 -12.25 C 5.003906 -13.386719 5.964844 -13.996094 7.449219 -13.996094 C 9.371094 -13.996094 10.039062 -13.125 10.476562 -11.640625 C 11 -9.980469 12.804688 -9.660156 13.878906 -11 C 12.714844 -13.269531 10.417969 -14.636719 7.363281 -14.636719 C 4.890625 -14.636719 1.746094 -13.707031 1.746094 -11.085938 C 1.746094 -8.699219 4.101562 -7.652344 6.78125 -6.316406 C 10.15625 -4.683594 11.058594 -4.074219 11.058594 -2.589844 C 11.058594 -1.191406 10.242188 -0.0585938 8.351562 -0.0585938 C 5.90625 -0.0585938 5.0625 -1.601562 4.890625 -3.257812 C 4.480469 -5.324219 1.890625 -5.644531 0.988281 -3.871094 Z M 0.988281 -3.871094 "/></g></g></g><g fill="#a5d7e8" fill-opacity="1"><g transform="translate(161.042088, 190.136632)"><g/></g></g><g fill="#a5d7e8" fill-opacity="1"><g transform="translate(168.054169, 190.136632)"><g><path d="M 1.164062 -6.75 C 3.726562 -1.339844 7.246094 0.582031 11.902344 0.582031 C 15.714844 0.582031 18.972656 -1.367188 18.972656 -5.5 C 18.972656 -9.429688 16.238281 -11.320312 10.738281 -14.988281 C 6.546875 -17.75 5.265625 -18.652344 5.265625 -20.488281 C 5.265625 -22.058594 6.636719 -23.25 8.933594 -23.25 C 12.714844 -23.25 14.199219 -20.019531 15.042969 -16.820312 L 18.476562 -18.246094 C 15.859375 -22.230469 12.921875 -23.863281 9.226562 -23.863281 C 5.527344 -23.863281 2.53125 -22.117188 2.53125 -18.710938 C 2.53125 -15.570312 4.453125 -13.96875 9.195312 -10.738281 C 13.878906 -7.449219 16.265625 -5.90625 16.265625 -3.667969 C 16.265625 -1.367188 14.695312 -0.0273438 12.25 -0.0273438 C 8.351562 -0.0273438 5.558594 -3.726562 4.625 -8.671875 Z M 1.164062 -6.75 "/></g></g></g><g fill="#a5d7e8" fill-opacity="1"><g transform="translate(186.734416, 190.136632)"><g><path d="M 12.425781 0 L 17.285156 0 C 16.964844 -2.882812 16.964844 -4.015625 16.964844 -6.054688 L 16.964844 -8.847656 C 16.964844 -13.035156 15.21875 -14.636719 12.25 -14.636719 C 9.226562 -14.636719 7.390625 -12.863281 6.257812 -10.855469 L 6.257812 -17.050781 C 6.257812 -19.089844 6.257812 -20.660156 6.578125 -23.28125 L 1.71875 -23.28125 C 2.007812 -20.660156 2.007812 -19.089844 2.007812 -17.050781 L 2.007812 -6.226562 C 2.007812 -4.191406 2.007812 -2.617188 1.71875 0 L 6.578125 0 C 6.257812 -2.617188 6.257812 -4.191406 6.257812 -6.226562 L 6.257812 -9.863281 C 7.304688 -11.929688 8.757812 -13.503906 10.59375 -13.503906 C 12.078125 -13.503906 12.714844 -12.398438 12.714844 -10.359375 L 12.714844 -6.054688 C 12.714844 -4.015625 12.714844 -2.882812 12.425781 0 Z M 12.425781 0 "/></g></g></g><g fill="#a5d7e8" fill-opacity="1"><g transform="translate(204.279855, 190.136632)"><g><path d="M 17.34375 -5.441406 C 16.207031 -2.035156 13.96875 -0.523438 11.40625 -0.523438 C 7.769531 -0.523438 5.9375 -3.636719 5.9375 -7.363281 C 5.9375 -7.769531 5.9375 -8.148438 5.964844 -8.527344 L 17.199219 -8.527344 C 17.140625 -11.785156 14.433594 -14.636719 9.75 -14.636719 C 5.414062 -14.636719 1.28125 -11.929688 1.28125 -7.011719 C 1.28125 -2.125 5.324219 0.582031 10.039062 0.582031 C 14.316406 0.582031 16.761719 -1.71875 17.867188 -5.441406 Z M 9.691406 -13.996094 C 11.816406 -13.996094 12.714844 -12.078125 12.714844 -9.167969 L 6.023438 -9.167969 C 6.371094 -12.398438 7.742188 -13.996094 9.691406 -13.996094 Z M 9.691406 -13.996094 "/></g></g></g><g fill="#a5d7e8" fill-opacity="1"><g transform="translate(221.708897, 190.136632)"><g><path d="M 2.035156 -18.710938 L 5.644531 -17.140625 C 6.109375 -20.921875 6.867188 -23.25 9.167969 -23.25 C 10.796875 -23.25 11.496094 -22 11.496094 -20.429688 C 11.496094 -16.324219 7.796875 -14.78125 7.796875 -6.519531 L 8.351562 -6.519531 C 8.351562 -14.460938 15.976562 -14.492188 15.976562 -19.527344 C 15.976562 -22.667969 12.601562 -23.863281 9.808594 -23.863281 C 6.429688 -23.863281 3.871094 -22.378906 2.035156 -18.710938 Z M 8.089844 0.582031 L 10.242188 -1.570312 L 8.089844 -3.726562 L 5.9375 -1.570312 Z M 8.089844 0.582031 "/></g></g></g></svg>