<svg xmlns="http://www.w3.org/2000/svg" xmlns:xlink="http://www.w3.org/1999/xlink" zoomAndPan="magnify" preserveAspectRatio="xMidYMid meet" version="1.0" viewBox="14.62 165.25 341.82 34.52"><defs><g/><clipPath id="2f72c43eea"><path d="M 14.648438 165.261719 L 61.148438 165.261719 L 61.148438 199.761719 L 14.648438 199.761719 Z M 14.648438 165.261719 " clip-rule="nonzero"/></clipPath></defs><g clip-path="url(#2f72c43eea)"><path fill="#ffffff" d="M 37.898438 165.265625 L 34.023438 199.761719 L 37.898438 199.761719 L 41.773438 165.265625 Z M 25.707031 171.574219 L 14.648438 182.511719 L 25.707031 193.449219 L 28.445312 190.742188 L 20.128906 182.511719 L 28.445312 174.285156 Z M 50.09375 171.574219 L 47.351562 174.285156 L 55.667969 182.511719 L 47.351562 190.742188 L 50.09375 193.449219 L 61.148438 182.511719 Z M 50.09375 171.574219 " fill-opacity="1" fill-rule="nonzero"/></g><g fill="#a5d7e8" fill-opacity="1"><g transform="translate(76.449428, 190.136632)"><g><path d="M 18.855469 -3.464844 L 13.386719 -23.28125 L 7.535156 -23.28125 C 7.796875 -22.4375 7.742188 -22.027344 7.535156 -21.214844 L 2.589844 -3.144531 C 2.300781 -2.066406 2.152344 -1.425781 1.453125 0 L 2.589844 0 C 2.675781 -1.367188 2.9375 -2.066406 3.230469 -3.171875 L 4.625 -8.324219 L 12.308594 -8.324219 L 13.648438 -3.464844 C 14.027344 -2.066406 14.230469 -1.453125 14.289062 0 L 20.222656 0 C 19.585938 -1.164062 19.265625 -1.921875 18.855469 -3.464844 Z M 4.800781 -8.933594 L 8.4375 -22.261719 L 12.132812 -8.933594 Z M 4.800781 -8.933594 "/></g></g></g><g fill="#a5d7e8" fill-opacity="1"><g transform="translate(96.671846, 190.136632)"><g><path d="M 1.28125 -7.011719 C 1.28125 -2.035156 4.976562 0.582031 9.339844 0.582031 C 13.910156 0.582031 15.917969 -2.269531 16.9375 -5.617188 L 16.382812 -5.617188 C 15.480469 -2.503906 13.5625 -0.699219 10.914062 -0.699219 C 7.273438 -0.699219 5.9375 -3.8125 5.9375 -7.507812 C 5.9375 -11.816406 7.042969 -13.996094 9.777344 -13.996094 C 12.046875 -13.996094 12.570312 -12.484375 12.773438 -11.203125 C 13.09375 -9.3125 15.191406 -8.847656 16.207031 -10.390625 C 15.570312 -12.601562 13.386719 -14.636719 9.574219 -14.636719 C 4.976562 -14.636719 1.28125 -12.019531 1.28125 -7.011719 Z M 1.28125 -7.011719 "/></g></g></g><g fill="#a5d7e8" fill-opacity="1"><g transform="translate(113.140671, 190.136632)"><g><path d="M 17.050781 0 C 16.617188 -2.503906 16.617188 -3.898438 16.617188 -6.054688 L 16.617188 -10.070312 C 16.585938 -13.503906 14.054688 -14.636719 10.5625 -14.636719 C 7.1875 -14.636719 4.132812 -13.386719 2.125 -12.046875 C 2.503906 -9.953125 4.714844 -9.632812 5.90625 -11.175781 C 6.75 -12.25 7.449219 -13.996094 9.980469 -13.996094 C 11.550781 -13.996094 12.367188 -13.066406 12.367188 -11.234375 C 12.367188 -9.371094 11.085938 -8.789062 8.554688 -8.324219 C 5.761719 -7.828125 1.570312 -6.925781 1.570312 -3.316406 C 1.570312 -0.464844 4.21875 0.582031 6.636719 0.582031 C 9.808594 0.582031 11.609375 -0.871094 12.398438 -2.96875 C 12.425781 -1.949219 12.484375 -1.136719 12.6875 0 Z M 8.730469 -0.84375 C 7.246094 -0.84375 6.226562 -1.832031 6.226562 -4.015625 C 6.226562 -5.996094 7.273438 -7.246094 9.429688 -7.886719 C 10.796875 -8.292969 11.816406 -8.554688 12.367188 -9.253906 L 12.367188 -5.675781 C 12.367188 -2.9375 10.96875 -0.84375 8.730469 -0.84375 Z M 8.730469 -0.84375 "/></g></g></g><g fill="#a5d7e8" fill-opacity="1"><g transform="translate(130.33694, 190.136632)"><g><path d="M 19.117188 0 C 18.683594 -2.734375 18.683594 -3.898438 18.683594 -5.9375 L 18.683594 -23.28125 L 14.054688 -23.28125 C 14.433594 -20.398438 14.433594 -19.265625 14.433594 -17.226562 L 14.433594 -11.667969 C 12.890625 -13.472656 10.941406 -14.636719 8.351562 -14.636719 C 5.121094 -14.636719 1.28125 -12.453125 1.28125 -7.011719 C 1.28125 -1.570312 5.003906 0.582031 8.613281 0.582031 C 11.871094 0.582031 13.675781 -1.105469 14.433594 -3.433594 C 14.460938 -2.183594 14.519531 -1.367188 14.753906 0 Z M 10.097656 -0.523438 C 7.101562 -0.523438 5.9375 -3.433594 5.9375 -7.011719 C 5.9375 -11.496094 7.421875 -13.675781 9.71875 -13.675781 C 11.523438 -13.675781 13.242188 -12.367188 14.433594 -10.796875 L 14.433594 -6.519531 C 14.433594 -2.675781 12.628906 -0.523438 10.097656 -0.523438 Z M 10.097656 -0.523438 "/></g></g></g><g fill="#a5d7e8" fill-opacity="1"><g transform="translate(149.715529, 190.136632)"><g><path d="M 17.34375 -5.441406 C 16.207031 -2.035156 13.96875 -0.523438 11.40625 -0.523438 C 7.769531 -0.523438 5.9375 -3.636719 5.9375 -7.363281 C 5.9375 -7.769531 5.9375 -8.148438 5.964844 -8.527344 L 17.199219 -8.527344 C 17.140625 -11.785156 14.433594 -14.636719 9.75 -14.636719 C 5.414062 -14.636719 1.28125 -11.929688 1.28125 -7.011719 C 1.28125 -2.125 5.324219 0.582031 10.039062 0.582031 C 14.316406 0.582031 16.761719 -1.71875 17.867188 -5.441406 Z M 9.691406 -13.996094 C 11.816406 -13.996094 12.714844 -12.078125 12.714844 -9.167969 L 6.023438 -9.167969 C 6.371094 -12.398438 7.742188 -13.996094 9.691406 -13.996094 Z M 9.691406 -13.996094 "/></g></g></g><g fill="#a5d7e8" fill-opacity="1"><g transform="translate(167.14457, 190.136632)"><g><path d="M 20.019531 0 L 24.878906 0 C 24.558594 -2.882812 24.558594 -4.015625 24.558594 -6.054688 L 24.558594 -9.253906 C 24.558594 -13.035156 23.046875 -14.636719 20.574219 -14.636719 C 18.101562 -14.636719 16.414062 -12.714844 15.304688 -10.914062 C 14.898438 -13.503906 13.503906 -14.636719 11.4375 -14.636719 C 8.960938 -14.636719 7.304688 -12.746094 6.285156 -10.941406 C 6.34375 -11.84375 6.429688 -12.804688 6.578125 -14.054688 L 1.71875 -14.054688 C 2.007812 -11.550781 2.007812 -10.15625 2.007812 -8.117188 L 2.007812 -5.9375 C 2.007812 -3.898438 2.007812 -2.503906 1.71875 0 L 6.578125 0 C 6.257812 -2.503906 6.257812 -3.898438 6.257812 -5.9375 L 6.257812 -9.894531 C 7.304688 -11.929688 8.46875 -13.355469 9.835938 -13.355469 C 10.914062 -13.355469 11.175781 -12.367188 11.175781 -10.59375 L 11.175781 -6.054688 C 11.175781 -4.015625 11.175781 -2.882812 10.855469 0 L 15.742188 0 C 15.421875 -2.882812 15.421875 -4.015625 15.421875 -6.054688 L 15.421875 -9.253906 C 15.421875 -9.542969 15.421875 -9.808594 15.394531 -10.070312 C 16.558594 -12.019531 17.664062 -13.355469 19.003906 -13.355469 C 20.050781 -13.355469 20.3125 -12.367188 20.3125 -10.59375 L 20.3125 -6.054688 C 20.3125 -4.015625 20.3125 -2.882812 20.019531 0 Z M 20.019531 0 "/></g></g></g><g fill="#a5d7e8" fill-opacity="1"><g transform="translate(192.284503, 190.136632)"><g><path d="M 4.511719 -17.140625 L 7.304688 -19.613281 L 4.511719 -22.085938 L 1.71875 -19.613281 Z M 2.09375 -14.054688 C 2.386719 -11.550781 2.386719 -10.15625 2.386719 -8.117188 L 2.386719 -5.9375 C 2.386719 -3.898438 2.386719 -2.503906 2.09375 0 L 6.953125 0 C 6.636719 -2.503906 6.636719 -3.898438 6.636719 -5.9375 L 6.636719 -8.117188 C 6.636719 -10.15625 6.636719 -11.550781 6.953125 -14.054688 Z M 2.09375 -14.054688 "/></g></g></g><g fill="#a5d7e8" fill-opacity="1"><g transform="translate(199.849437, 190.136632)"><g><path d="M 1.28125 -7.011719 C 1.28125 -2.035156 4.976562 0.582031 9.339844 0.582031 C 13.910156 0.582031 15.917969 -2.269531 16.9375 -5.617188 L 16.382812 -5.617188 C 15.480469 -2.503906 13.5625 -0.699219 10.914062 -0.699219 C 7.273438 -0.699219 5.9375 -3.8125 5.9375 -7.507812 C 5.9375 -11.816406 7.042969 -13.996094 9.777344 -13.996094 C 12.046875 -13.996094 12.570312 -12.484375 12.773438 -11.203125 C 13.09375 -9.3125 15.191406 -8.847656 16.207031 -10.390625 C 15.570312 -12.601562 13.386719 -14.636719 9.574219 -14.636719 C 4.976562 -14.636719 1.28125 -12.019531 1.28125 -7.011719 Z M 1.28125 -7.011719 "/></g></g></g><g fill="#a5d7e8" fill-opacity="1"><g transform="translate(216.318262, 190.136632)"><g/></g></g><g fill="#a5d7e8" fill-opacity="1"><g transform="translate(223.330343, 190.136632)"><g><path d="M 15.511719 0.582031 C 23.367188 0.582031 29.304688 -4.074219 29.304688 -11.640625 C 29.304688 -19.175781 23.367188 -23.863281 15.511719 -23.863281 C 7.652344 -23.863281 1.746094 -19.175781 1.746094 -11.640625 C 1.746094 -4.074219 7.652344 0.582031 15.511719 0.582031 Z M 15.511719 -0.0273438 C 9.863281 -0.0273438 7.042969 -5.5 7.042969 -11.640625 C 7.042969 -17.75 9.863281 -23.25 15.511719 -23.25 C 21.15625 -23.25 24.007812 -17.75 24.007812 -11.640625 C 24.007812 -5.5 21.15625 -0.0273438 15.511719 -0.0273438 Z M 15.511719 -0.0273438 "/></g></g></g><g fill="#a5d7e8" fill-opacity="1"><g transform="translate(252.922221, 190.136632)"><g><path d="M 19.117188 0 C 18.683594 -2.734375 18.683594 -3.898438 18.683594 -5.9375 L 18.683594 -23.28125 L 14.054688 -23.28125 C 14.433594 -20.398438 14.433594 -19.265625 14.433594 -17.226562 L 14.433594 -11.667969 C 12.890625 -13.472656 10.941406 -14.636719 8.351562 -14.636719 C 5.121094 -14.636719 1.28125 -12.453125 1.28125 -7.011719 C 1.28125 -1.570312 5.003906 0.582031 8.613281 0.582031 C 11.871094 0.582031 13.675781 -1.105469 14.433594 -3.433594 C 14.460938 -2.183594 14.519531 -1.367188 14.753906 0 Z M 10.097656 -0.523438 C 7.101562 -0.523438 5.9375 -3.433594 5.9375 -7.011719 C 5.9375 -11.496094 7.421875 -13.675781 9.71875 -13.675781 C 11.523438 -13.675781 13.242188 -12.367188 14.433594 -10.796875 L 14.433594 -6.519531 C 14.433594 -2.675781 12.628906 -0.523438 10.097656 -0.523438 Z M 10.097656 -0.523438 "/></g></g></g><g fill="#a5d7e8" fill-opacity="1"><g transform="translate(272.30081, 190.136632)"><g><path d="M 15.570312 -14.054688 C 15.421875 -13.183594 15.335938 -12.714844 14.957031 -11.640625 L 11.175781 -0.699219 L 6.953125 -11.640625 C 6.605469 -12.511719 6.402344 -13.007812 6.226562 -14.054688 L 1.019531 -14.054688 C 1.628906 -13.035156 1.921875 -12.484375 2.269531 -11.582031 L 6.722656 0 L 10.941406 0 L 10.882812 0.144531 C 9.71875 3.492188 8.03125 4.683594 6.664062 4.683594 C 5.5 4.683594 5.003906 4.042969 4.394531 2.824219 C 3.550781 0.902344 0.988281 1.660156 1.339844 3.667969 C 2.503906 4.800781 4.335938 5.324219 5.964844 5.324219 C 8.699219 5.324219 10.242188 3.871094 11.582031 0 L 15.597656 -11.582031 C 15.976562 -12.6875 16.179688 -13.183594 16.644531 -14.054688 Z M 15.570312 -14.054688 "/></g></g></g><g fill="#a5d7e8" fill-opacity="1"><g transform="translate(288.478658, 190.136632)"><g><path d="M 0.988281 -3.871094 C 1.773438 -0.929688 4.539062 0.582031 8.175781 0.582031 C 11.988281 0.582031 14.433594 -1.136719 14.433594 -3.78125 C 14.433594 -6.664062 11.902344 -7.652344 8.90625 -9.019531 C 6.082031 -10.332031 5.003906 -11 5.003906 -12.25 C 5.003906 -13.386719 5.964844 -13.996094 7.449219 -13.996094 C 9.371094 -13.996094 10.039062 -13.125 10.476562 -11.640625 C 11 -9.980469 12.804688 -9.660156 13.878906 -11 C 12.714844 -13.269531 10.417969 -14.636719 7.363281 -14.636719 C 4.890625 -14.636719 1.746094 -13.707031 1.746094 -11.085938 C 1.746094 -8.699219 4.101562 -7.652344 6.78125 -6.316406 C 10.15625 -4.683594 11.058594 -4.074219 11.058594 -2.589844 C 11.058594 -1.191406 10.242188 -0.0585938 8.351562 -0.0585938 C 5.90625 -0.0585938 5.0625 -1.601562 4.890625 -3.257812 C 4.480469 -5.324219 1.890625 -5.644531 0.988281 -3.871094 Z M 0.988281 -3.871094 "/></g></g></g><g fill="#a5d7e8" fill-opacity="1"><g transform="translate(302.474163, 190.136632)"><g><path d="M 0.988281 -3.871094 C 1.773438 -0.929688 4.539062 0.582031 8.175781 0.582031 C 11.988281 0.582031 14.433594 -1.136719 14.433594 -3.78125 C 14.433594 -6.664062 11.902344 -7.652344 8.90625 -9.019531 C 6.082031 -10.332031 5.003906 -11 5.003906 -12.25 C 5.003906 -13.386719 5.964844 -13.996094 7.449219 -13.996094 C 9.371094 -13.996094 10.039062 -13.125 10.476562 -11.640625 C 11 -9.980469 12.804688 -9.660156 13.878906 -11 C 12.714844 -13.269531 10.417969 -14.636719 7.363281 -14.636719 C 4.890625 -14.636719 1.746094 -13.707031 1.746094 -11.085938 C 1.746094 -8.699219 4.101562 -7.652344 6.78125 -6.316406 C 10.15625 -4.683594 11.058594 -4.074219 11.058594 -2.589844 C 11.058594 -1.191406 10.242188 -0.0585938 8.351562 -0.0585938 C 5.90625 -0.0585938 5.0625 -1.601562 4.890625 -3.257812 C 4.480469 -5.324219 1.890625 -5.644531 0.988281 -3.871094 Z M 0.988281 -3.871094 "/></g></g></g><g fill="#a5d7e8" fill-opacity="1"><g transform="translate(316.469692, 190.136632)"><g><path d="M 17.34375 -5.441406 C 16.207031 -2.035156 13.96875 -0.523438 11.40625 -0.523438 C 7.769531 -0.523438 5.9375 -3.636719 5.9375 -7.363281 C 5.9375 -7.769531 5.9375 -8.148438 5.964844 -8.527344 L 17.199219 -8.527344 C 17.140625 -11.785156 14.433594 -14.636719 9.75 -14.636719 C 5.414062 -14.636719 1.28125 -11.929688 1.28125 -7.011719 C 1.28125 -2.125 5.324219 0.582031 10.039062 0.582031 C 14.316406 0.582031 16.761719 -1.71875 17.867188 -5.441406 Z M 9.691406 -13.996094 C 11.816406 -13.996094 12.714844 -12.078125 12.714844 -9.167969 L 6.023438 -9.167969 C 6.371094 -12.398438 7.742188 -13.996094 9.691406 -13.996094 Z M 9.691406 -13.996094 "/></g></g></g><g fill="#a5d7e8" fill-opacity="1"><g transform="translate(333.898722, 190.136632)"><g><path d="M 15.570312 -14.054688 C 15.421875 -13.183594 15.335938 -12.714844 14.957031 -11.640625 L 11.175781 -0.699219 L 6.953125 -11.640625 C 6.605469 -12.511719 6.402344 -13.007812 6.226562 -14.054688 L 1.019531 -14.054688 C 1.628906 -13.035156 1.921875 -12.484375 2.269531 -11.582031 L 6.722656 0 L 10.941406 0 L 10.882812 0.144531 C 9.71875 3.492188 8.03125 4.683594 6.664062 4.683594 C 5.5 4.683594 5.003906 4.042969 4.394531 2.824219 C 3.550781 0.902344 0.988281 1.660156 1.339844 3.667969 C 2.503906 4.800781 4.335938 5.324219 5.964844 5.324219 C 8.699219 5.324219 10.242188 3.871094 11.582031 0 L 15.597656 -11.582031 C 15.976562 -12.6875 16.179688 -13.183594 16.644531 -14.054688 Z M 15.570312 -14.054688 "/></g></g></g><g fill="#a5d7e8" fill-opacity="1"><g transform="translate(350.076569, 190.136632)"><g><path d="M 4.191406 0.582031 L 6.34375 -1.570312 L 4.191406 -3.726562 L 2.035156 -1.570312 Z M 4.191406 0.582031 "/></g></g></g></svg>