<svg xmlns="http://www.w3.org/2000/svg" xmlns:xlink="http://www.w3.org/1999/xlink" zoomAndPan="magnify" preserveAspectRatio="xMidYMid meet" version="1.0" viewBox="14.62 165.25 241.6 34.52"><defs><g/><clipPath id="53d1976a5d"><path d="M 14.648438 165.261719 L 61.148438 165.261719 L 61.148438 199.761719 L 14.648438 199.761719 Z M 14.648438 165.261719 " clip-rule="nonzero"/></clipPath></defs><g clip-path="url(#53d1976a5d)"><path fill="#ffffff" d="M 37.898438 165.265625 L 34.023438 199.761719 L 37.898438 199.761719 L 41.773438 165.265625 Z M 25.707031 171.574219 L 14.648438 182.511719 L 25.707031 193.449219 L 28.445312 190.742188 L 20.128906 182.511719 L 28.445312 174.285156 Z M 50.09375 171.574219 L 47.351562 174.285156 L 55.667969 182.511719 L 47.351562 190.742188 L 50.09375 193.449219 L 61.148438 182.511719 Z M 50.09375 171.574219 " fill-opacity="1" fill-rule="nonzero"/></g><g fill="#a5d7e8" fill-opacity="1"><g transform="translate(65.477952, 190.136632)"><g><path d="M 26.363281 -11.117188 L 26.363281 -11.726562 L 13.675781 -11.726562 L 15.363281 -9.398438 C 17.75 -10.855469 20.136719 -11.117188 21.765625 -11.117188 L 23.078125 -11.117188 C 22.757812 -4.859375 19.90625 -0.929688 15.101562 -0.929688 C 9.75 -0.929688 7.042969 -5.996094 7.042969 -12.25 C 7.042969 -18.332031 9.515625 -23.25 13.996094 -23.25 C 17.34375 -23.25 19.03125 -20.050781 19.699219 -16.121094 L 24.296875 -17.402344 C 22.289062 -21.242188 18.972656 -23.863281 13.996094 -23.863281 C 7.246094 -23.863281 1.746094 -19.324219 1.746094 -11.929688 C 1.746094 -4.539062 6.546875 0.582031 13.589844 0.582031 C 19.058594 0.582031 21.941406 -2.5625 23.078125 -7.449219 L 23.078125 -6.460938 C 23.078125 -4.277344 22.988281 -2.355469 22.699219 0 L 24.386719 0 C 24.09375 -2.355469 24.007812 -4.277344 24.007812 -6.460938 L 24.007812 -11.117188 Z M 26.363281 -11.117188 "/></g></g></g><g fill="#a5d7e8" fill-opacity="1"><g transform="translate(90.967056, 190.136632)"><g><path d="M 17.34375 -5.441406 C 16.207031 -2.035156 13.96875 -0.523438 11.40625 -0.523438 C 7.769531 -0.523438 5.9375 -3.636719 5.9375 -7.363281 C 5.9375 -7.769531 5.9375 -8.148438 5.964844 -8.527344 L 17.199219 -8.527344 C 17.140625 -11.785156 14.433594 -14.636719 9.75 -14.636719 C 5.414062 -14.636719 1.28125 -11.929688 1.28125 -7.011719 C 1.28125 -2.125 5.324219 0.582031 10.039062 0.582031 C 14.316406 0.582031 16.761719 -1.71875 17.867188 -5.441406 Z M 9.691406 -13.996094 C 11.816406 -13.996094 12.714844 -12.078125 12.714844 -9.167969 L 6.023438 -9.167969 C 6.371094 -12.398438 7.742188 -13.996094 9.691406 -13.996094 Z M 9.691406 -13.996094 "/></g></g></g><g fill="#a5d7e8" fill-opacity="1"><g transform="translate(108.396098, 190.136632)"><g><path d="M 12.164062 -5.9375 C 11.582031 -1.949219 10.621094 -0.378906 9.339844 -0.378906 C 8.265625 -0.378906 7.796875 -1.222656 7.796875 -3.726562 L 7.796875 -13.414062 L 12.046875 -13.414062 L 12.046875 -14.054688 L 4.832031 -14.054688 C 7.742188 -15.21875 8.378906 -17.78125 8.378906 -20.253906 L 4.800781 -20.253906 C 4.800781 -16.9375 4.890625 -14.054688 0.871094 -14.054688 L 0.40625 -14.054688 L 0.40625 -13.414062 L 3.550781 -13.414062 L 3.550781 -4.363281 C 3.550781 -0.960938 4.714844 0.726562 7.769531 0.726562 C 10.417969 0.726562 11.960938 -0.757812 12.6875 -5.9375 Z M 12.164062 -5.9375 "/></g></g></g><g fill="#a5d7e8" fill-opacity="1"><g transform="translate(120.645761, 190.136632)"><g/></g></g><g fill="#a5d7e8" fill-opacity="1"><g transform="translate(127.657842, 190.136632)"><g><path d="M 4.511719 -17.140625 L 7.304688 -19.613281 L 4.511719 -22.085938 L 1.71875 -19.613281 Z M 2.09375 -14.054688 C 2.386719 -11.550781 2.386719 -10.15625 2.386719 -8.117188 L 2.386719 -5.9375 C 2.386719 -3.898438 2.386719 -2.503906 2.09375 0 L 6.953125 0 C 6.636719 -2.503906 6.636719 -3.898438 6.636719 -5.9375 L 6.636719 -8.117188 C 6.636719 -10.15625 6.636719 -11.550781 6.953125 -14.054688 Z M 2.09375 -14.054688 "/></g></g></g><g fill="#a5d7e8" fill-opacity="1"><g transform="translate(135.222775, 190.136632)"><g><path d="M 12.425781 0 L 17.285156 0 C 16.964844 -2.882812 16.964844 -4.015625 16.964844 -6.054688 L 16.964844 -8.847656 C 16.964844 -13.035156 15.21875 -14.636719 12.25 -14.636719 C 9.253906 -14.636719 7.421875 -12.890625 6.285156 -10.914062 C 6.34375 -11.84375 6.429688 -12.804688 6.578125 -14.054688 L 1.71875 -14.054688 C 2.007812 -11.550781 2.007812 -10.15625 2.007812 -8.117188 L 2.007812 -5.9375 C 2.007812 -3.898438 2.007812 -2.503906 1.71875 0 L 6.578125 0 C 6.257812 -2.503906 6.257812 -3.898438 6.257812 -5.9375 L 6.257812 -9.894531 C 7.304688 -11.929688 8.757812 -13.503906 10.59375 -13.503906 C 12.078125 -13.503906 12.714844 -12.398438 12.714844 -10.359375 L 12.714844 -6.054688 C 12.714844 -4.015625 12.714844 -2.882812 12.425781 0 Z M 12.425781 0 "/></g></g></g><g fill="#a5d7e8" fill-opacity="1"><g transform="translate(152.768215, 190.136632)"><g/></g></g><g fill="#a5d7e8" fill-opacity="1"><g transform="translate(159.780296, 190.136632)"><g><path d="M 12.164062 -5.9375 C 11.582031 -1.949219 10.621094 -0.378906 9.339844 -0.378906 C 8.265625 -0.378906 7.796875 -1.222656 7.796875 -3.726562 L 7.796875 -13.414062 L 12.046875 -13.414062 L 12.046875 -14.054688 L 4.832031 -14.054688 C 7.742188 -15.21875 8.378906 -17.78125 8.378906 -20.253906 L 4.800781 -20.253906 C 4.800781 -16.9375 4.890625 -14.054688 0.871094 -14.054688 L 0.40625 -14.054688 L 0.40625 -13.414062 L 3.550781 -13.414062 L 3.550781 -4.363281 C 3.550781 -0.960938 4.714844 0.726562 7.769531 0.726562 C 10.417969 0.726562 11.960938 -0.757812 12.6875 -5.9375 Z M 12.164062 -5.9375 "/></g></g></g><g fill="#a5d7e8" fill-opacity="1"><g transform="translate(172.029959, 190.136632)"><g><path d="M 10.476562 0.582031 C 15.714844 0.582031 19.671875 -2.152344 19.671875 -7.011719 C 19.671875 -11.871094 15.714844 -14.636719 10.476562 -14.636719 C 5.265625 -14.636719 1.28125 -11.871094 1.28125 -7.011719 C 1.28125 -2.152344 5.265625 0.582031 10.476562 0.582031 Z M 10.476562 -0.0273438 C 7.480469 -0.0273438 5.9375 -2.445312 5.9375 -7.011719 C 5.9375 -11.609375 7.480469 -13.996094 10.476562 -13.996094 C 13.503906 -13.996094 15.042969 -11.609375 15.042969 -7.011719 C 15.042969 -2.445312 13.503906 -0.0273438 10.476562 -0.0273438 Z M 10.476562 -0.0273438 "/></g></g></g><g fill="#a5d7e8" fill-opacity="1"><g transform="translate(191.554036, 190.136632)"><g><path d="M 12.398438 -14.054688 C 12.773438 -11.175781 12.773438 -10.011719 12.773438 -7.972656 L 12.773438 -4.074219 C 11.726562 -2.007812 10.300781 -0.523438 8.46875 -0.523438 C 6.953125 -0.523438 6.34375 -1.660156 6.34375 -3.695312 L 6.34375 -14.054688 L 1.71875 -14.054688 C 2.09375 -11.175781 2.09375 -10.011719 2.09375 -7.972656 L 2.09375 -5.179688 C 2.09375 -0.988281 3.839844 0.582031 6.808594 0.582031 C 9.808594 0.582031 11.609375 -1.136719 12.714844 -3.113281 C 12.6875 -2.269531 12.601562 -1.308594 12.453125 0 L 17.023438 0 L 17.023438 -14.054688 Z M 12.398438 -14.054688 "/></g></g></g><g fill="#a5d7e8" fill-opacity="1"><g transform="translate(208.837589, 190.136632)"><g><path d="M 1.28125 -7.011719 C 1.28125 -2.035156 4.976562 0.582031 9.339844 0.582031 C 13.910156 0.582031 15.917969 -2.269531 16.9375 -5.617188 L 16.382812 -5.617188 C 15.480469 -2.503906 13.5625 -0.699219 10.914062 -0.699219 C 7.273438 -0.699219 5.9375 -3.8125 5.9375 -7.507812 C 5.9375 -11.816406 7.042969 -13.996094 9.777344 -13.996094 C 12.046875 -13.996094 12.570312 -12.484375 12.773438 -11.203125 C 13.09375 -9.3125 15.191406 -8.847656 16.207031 -10.390625 C 15.570312 -12.601562 13.386719 -14.636719 9.574219 -14.636719 C 4.976562 -14.636719 1.28125 -12.019531 1.28125 -7.011719 Z M 1.28125 -7.011719 "/></g></g></g><g fill="#a5d7e8" fill-opacity="1"><g transform="translate(225.306414, 190.136632)"><g><path d="M 12.425781 0 L 17.285156 0 C 16.964844 -2.882812 16.964844 -4.015625 16.964844 -6.054688 L 16.964844 -8.847656 C 16.964844 -13.035156 15.21875 -14.636719 12.25 -14.636719 C 9.226562 -14.636719 7.390625 -12.863281 6.257812 -10.855469 L 6.257812 -17.050781 C 6.257812 -19.089844 6.257812 -20.660156 6.578125 -23.28125 L 1.71875 -23.28125 C 2.007812 -20.660156 2.007812 -19.089844 2.007812 -17.050781 L 2.007812 -6.226562 C 2.007812 -4.191406 2.007812 -2.617188 1.71875 0 L 6.578125 0 C 6.257812 -2.617188 6.257812 -4.191406 6.257812 -6.226562 L 6.257812 -9.863281 C 7.304688 -11.929688 8.757812 -13.503906 10.59375 -13.503906 C 12.078125 -13.503906 12.714844 -12.398438 12.714844 -10.359375 L 12.714844 -6.054688 C 12.714844 -4.015625 12.714844 -2.882812 12.425781 0 Z M 12.425781 0 "/></g></g></g><g fill="#a5d7e8" fill-opacity="1"><g transform="translate(242.851854, 190.136632)"><g/></g></g><g fill="#a5d7e8" fill-opacity="1"><g transform="translate(249.863934, 190.136632)"><g><path d="M 2.328125 -21.214844 C 3.027344 -18.363281 3.609375 -14.695312 3.929688 -6.371094 L 4.453125 -6.371094 C 4.800781 -14.695312 5.324219 -18.363281 6.054688 -21.214844 L 4.191406 -23.28125 Z M 4.191406 0.582031 L 6.34375 -1.570312 L 4.191406 -3.726562 L 2.035156 -1.570312 Z M 4.191406 0.582031 "/></g></g></g></svg>