<svg xmlns="http://www.w3.org/2000/svg" xmlns:xlink="http://www.w3.org/1999/xlink" zoomAndPan="magnify" preserveAspectRatio="xMidYMid meet" version="1.0" viewBox="9.62 118.12 358.57 92.27"><defs><g/><clipPath id="b5d9d9e7d7"><path d="M 9.609375 118.125 L 120.609375 118.125 L 120.609375 168 L 9.609375 168 Z M 9.609375 118.125 " clip-rule="nonzero"/></clipPath><clipPath id="191f1b3562"><path d="M 21 167 L 109 167 L 109 210.375 L 21 210.375 Z M 21 167 " clip-rule="nonzero"/></clipPath></defs><g clip-path="url(#b5d9d9e7d7)"><path fill="#a5d7e8" d="M 120.566406 155.027344 C 120.566406 161.816406 115.046875 167.324219 108.242188 167.324219 L 21.972656 167.324219 C 15.167969 167.324219 9.648438 161.816406 9.648438 155.027344 L 9.648438 130.425781 C 9.648438 123.632812 15.167969 118.125 21.972656 118.125 L 108.242188 118.125 C 115.046875 118.125 120.566406 123.632812 120.566406 130.425781 Z M 120.566406 155.027344 " fill-opacity="1" fill-rule="nonzero"/><path fill="#292f33" d="M 28.136719 118.125 L 21.972656 118.125 C 15.167969 118.125 9.648438 123.632812 9.648438 130.425781 L 9.648438 136.574219 Z M 46.621094 118.125 L 9.648438 155.027344 C 9.648438 159.207031 11.75 162.890625 14.949219 165.113281 L 62.027344 118.125 Z M 31.214844 167.324219 L 46.621094 167.324219 L 95.917969 118.125 L 80.511719 118.125 Z M 80.511719 167.324219 L 120.234375 127.683594 C 119.367188 123.898438 116.761719 120.792969 113.292969 119.230469 L 65.109375 167.324219 Z M 120.566406 155.027344 L 120.566406 145.800781 L 99 167.324219 L 108.242188 167.324219 C 115.046875 167.324219 120.566406 161.816406 120.566406 155.027344 Z M 120.566406 155.027344 " fill-opacity="1" fill-rule="nonzero"/></g><g clip-path="url(#191f1b3562)"><path fill="#99aab5" d="M 21.972656 167.324219 L 37.378906 167.324219 L 37.378906 210.375 L 21.972656 210.375 Z M 92.835938 167.324219 L 108.242188 167.324219 L 108.242188 210.375 L 92.835938 210.375 Z M 92.835938 167.324219 " fill-opacity="1" fill-rule="nonzero"/></g><g fill="#a5d7e8" fill-opacity="1"><g transform="translate(179.625601, 154.775138)"><g><path d="M 2.347656 -31.285156 C 2.660156 -28.3125 2.777344 -26.550781 2.777344 -22.914062 L 2.777344 -13.296875 C 2.777344 -2.035156 8.40625 0.78125 16.425781 0.78125 C 23.816406 0.78125 27.140625 -3.050781 27.140625 -13.296875 L 27.140625 -22.914062 C 27.140625 -26.550781 27.257812 -28.3125 27.570312 -31.285156 L 25.886719 -31.285156 C 26.199219 -28.3125 26.316406 -26.550781 26.316406 -22.914062 L 26.316406 -13.296875 C 26.316406 -3.792969 23.386719 -0.585938 17.636719 -0.585938 C 11.457031 -0.585938 9.347656 -4.183594 9.347656 -13.296875 L 9.347656 -22.914062 C 9.347656 -26.550781 9.464844 -28.3125 9.777344 -31.285156 Z M 2.347656 -31.285156 "/></g></g></g><g fill="#a5d7e8" fill-opacity="1"><g transform="translate(207.576975, 154.775138)"><g><path d="M 16.699219 0 L 23.226562 0 C 22.796875 -3.871094 22.796875 -5.398438 22.796875 -8.132812 L 22.796875 -11.886719 C 22.796875 -17.519531 20.453125 -19.667969 16.464844 -19.667969 C 12.433594 -19.667969 9.972656 -17.324219 8.445312 -14.664062 C 8.523438 -15.914062 8.640625 -17.207031 8.835938 -18.886719 L 2.308594 -18.886719 C 2.699219 -15.523438 2.699219 -13.648438 2.699219 -10.910156 L 2.699219 -7.976562 C 2.699219 -5.238281 2.699219 -3.363281 2.308594 0 L 8.835938 0 C 8.40625 -3.363281 8.40625 -5.238281 8.40625 -7.976562 L 8.40625 -13.296875 C 9.816406 -16.03125 11.769531 -18.144531 14.234375 -18.144531 C 16.230469 -18.144531 17.089844 -16.660156 17.089844 -13.921875 L 17.089844 -8.132812 C 17.089844 -5.398438 17.089844 -3.871094 16.699219 0 Z M 16.699219 0 "/></g></g></g><g fill="#a5d7e8" fill-opacity="1"><g transform="translate(231.149852, 154.775138)"><g><path d="M 25.691406 0 C 25.105469 -3.675781 25.105469 -5.238281 25.105469 -7.976562 L 25.105469 -31.285156 L 18.886719 -31.285156 C 19.394531 -27.414062 19.394531 -25.886719 19.394531 -23.148438 L 19.394531 -15.679688 C 17.324219 -18.105469 14.703125 -19.667969 11.222656 -19.667969 C 6.882812 -19.667969 1.71875 -16.738281 1.71875 -9.425781 C 1.71875 -2.113281 6.726562 0.78125 11.574219 0.78125 C 15.953125 0.78125 18.378906 -1.484375 19.394531 -4.613281 C 19.433594 -2.933594 19.511719 -1.839844 19.828125 0 Z M 13.570312 -0.703125 C 9.542969 -0.703125 7.976562 -4.613281 7.976562 -9.425781 C 7.976562 -15.445312 9.972656 -18.378906 13.0625 -18.378906 C 15.484375 -18.378906 17.792969 -16.621094 19.394531 -14.507812 L 19.394531 -8.757812 C 19.394531 -3.597656 16.972656 -0.703125 13.570312 -0.703125 Z M 13.570312 -0.703125 "/></g></g></g><g fill="#a5d7e8" fill-opacity="1"><g transform="translate(257.185633, 154.775138)"><g><path d="M 23.304688 -7.3125 C 21.78125 -2.738281 18.769531 -0.703125 15.328125 -0.703125 C 10.441406 -0.703125 7.976562 -4.886719 7.976562 -9.894531 C 7.976562 -10.441406 7.976562 -10.949219 8.015625 -11.457031 L 23.109375 -11.457031 C 23.03125 -15.835938 19.394531 -19.667969 13.101562 -19.667969 C 7.273438 -19.667969 1.71875 -16.03125 1.71875 -9.425781 C 1.71875 -2.855469 7.15625 0.78125 13.492188 0.78125 C 19.238281 0.78125 22.523438 -2.308594 24.011719 -7.3125 Z M 13.023438 -18.808594 C 15.875 -18.808594 17.089844 -16.230469 17.089844 -12.316406 L 8.09375 -12.316406 C 8.5625 -16.660156 10.402344 -18.808594 13.023438 -18.808594 Z M 13.023438 -18.808594 "/></g></g></g><g fill="#a5d7e8" fill-opacity="1"><g transform="translate(280.602138, 154.775138)"><g><path d="M 19.433594 -18.886719 C 13.960938 -19.90625 11.378906 -16.816406 8.40625 -13.179688 C 8.445312 -14.898438 8.523438 -16.542969 8.835938 -18.886719 L 2.308594 -18.886719 C 2.699219 -15.523438 2.699219 -13.648438 2.699219 -10.910156 L 2.699219 -7.976562 C 2.699219 -5.238281 2.699219 -3.363281 2.308594 0 L 8.835938 0 C 8.40625 -3.363281 8.40625 -5.238281 8.40625 -7.976562 L 8.40625 -11.964844 C 12.160156 -16.109375 13.609375 -16.230469 15.757812 -15.5625 C 18.457031 -14.703125 19.90625 -16.347656 19.433594 -18.886719 Z M 19.433594 -18.886719 "/></g></g></g><g fill="#a5d7e8" fill-opacity="1"><g transform="translate(109.992793, 199.025135)"><g><path d="M 33.042969 -13.296875 C 31.246094 -5.476562 26.863281 -1.132812 20.6875 -1.132812 C 12.90625 -1.132812 9.464844 -8.054688 9.464844 -16.464844 C 9.464844 -24.636719 12.789062 -31.246094 18.691406 -31.246094 C 23.109375 -31.246094 25.339844 -26.941406 26.238281 -21.234375 L 32.457031 -22.914062 C 29.757812 -28.546875 25.300781 -32.066406 18.691406 -32.066406 C 9.738281 -32.066406 2.347656 -25.964844 2.347656 -16.03125 C 2.347656 -6.101562 8.757812 0.78125 18.808594 0.78125 C 27.101562 0.78125 31.753906 -4.574219 33.785156 -13.296875 Z M 33.042969 -13.296875 "/></g></g></g><g fill="#a5d7e8" fill-opacity="1"><g transform="translate(143.3782, 199.025135)"><g><path d="M 14.078125 0.78125 C 21.117188 0.78125 26.433594 -2.894531 26.433594 -9.425781 C 26.433594 -15.953125 21.117188 -19.667969 14.078125 -19.667969 C 7.078125 -19.667969 1.71875 -15.953125 1.71875 -9.425781 C 1.71875 -2.894531 7.078125 0.78125 14.078125 0.78125 Z M 14.078125 -0.0390625 C 10.050781 -0.0390625 7.976562 -3.285156 7.976562 -9.425781 C 7.976562 -15.601562 10.050781 -18.808594 14.078125 -18.808594 C 18.144531 -18.808594 20.21875 -15.601562 20.21875 -9.425781 C 20.21875 -3.285156 18.144531 -0.0390625 14.078125 -0.0390625 Z M 14.078125 -0.0390625 "/></g></g></g><g fill="#a5d7e8" fill-opacity="1"><g transform="translate(169.609446, 199.025135)"><g><path d="M 16.699219 0 L 23.226562 0 C 22.796875 -3.871094 22.796875 -5.398438 22.796875 -8.132812 L 22.796875 -11.886719 C 22.796875 -17.519531 20.453125 -19.667969 16.464844 -19.667969 C 12.433594 -19.667969 9.972656 -17.324219 8.445312 -14.664062 C 8.523438 -15.914062 8.640625 -17.207031 8.835938 -18.886719 L 2.308594 -18.886719 C 2.699219 -15.523438 2.699219 -13.648438 2.699219 -10.910156 L 2.699219 -7.976562 C 2.699219 -5.238281 2.699219 -3.363281 2.308594 0 L 8.835938 0 C 8.40625 -3.363281 8.40625 -5.238281 8.40625 -7.976562 L 8.40625 -13.296875 C 9.816406 -16.03125 11.769531 -18.144531 14.234375 -18.144531 C 16.230469 -18.144531 17.089844 -16.660156 17.089844 -13.921875 L 17.089844 -8.132812 C 17.089844 -5.398438 17.089844 -3.871094 16.699219 0 Z M 16.699219 0 "/></g></g></g><g fill="#a5d7e8" fill-opacity="1"><g transform="translate(193.182323, 199.025135)"><g><path d="M 1.328125 -5.199219 C 2.386719 -1.25 6.101562 0.78125 10.988281 0.78125 C 16.109375 0.78125 19.394531 -1.523438 19.394531 -5.082031 C 19.394531 -8.953125 15.992188 -10.285156 11.964844 -12.121094 C 8.171875 -13.882812 6.726562 -14.78125 6.726562 -16.464844 C 6.726562 -17.988281 8.015625 -18.808594 10.011719 -18.808594 C 12.59375 -18.808594 13.492188 -17.636719 14.078125 -15.640625 C 14.78125 -13.414062 17.207031 -12.984375 18.652344 -14.78125 C 17.089844 -17.832031 14 -19.667969 9.894531 -19.667969 C 6.570312 -19.667969 2.347656 -18.417969 2.347656 -14.898438 C 2.347656 -11.691406 5.515625 -10.285156 9.113281 -8.484375 C 13.648438 -6.296875 14.859375 -5.476562 14.859375 -3.480469 C 14.859375 -1.601562 13.765625 -0.078125 11.222656 -0.078125 C 7.9375 -0.078125 6.804688 -2.152344 6.570312 -4.378906 C 6.023438 -7.15625 2.542969 -7.585938 1.328125 -5.199219 Z M 1.328125 -5.199219 "/></g></g></g><g fill="#a5d7e8" fill-opacity="1"><g transform="translate(211.98576, 199.025135)"><g><path d="M 16.347656 -7.976562 C 15.5625 -2.621094 14.273438 -0.507812 12.550781 -0.507812 C 11.105469 -0.507812 10.480469 -1.640625 10.480469 -5.003906 L 10.480469 -18.027344 L 16.191406 -18.027344 L 16.191406 -18.886719 L 6.492188 -18.886719 C 10.402344 -20.453125 11.261719 -23.894531 11.261719 -27.21875 L 6.453125 -27.21875 C 6.453125 -22.757812 6.570312 -18.886719 1.171875 -18.886719 L 0.546875 -18.886719 L 0.546875 -18.027344 L 4.769531 -18.027344 L 4.769531 -5.867188 C 4.769531 -1.289062 6.335938 0.976562 10.441406 0.976562 C 14 0.976562 16.070312 -1.015625 17.050781 -7.976562 Z M 16.347656 -7.976562 "/></g></g></g><g fill="#a5d7e8" fill-opacity="1"><g transform="translate(228.443576, 199.025135)"><g><path d="M 19.433594 -18.886719 C 13.960938 -19.90625 11.378906 -16.816406 8.40625 -13.179688 C 8.445312 -14.898438 8.523438 -16.542969 8.835938 -18.886719 L 2.308594 -18.886719 C 2.699219 -15.523438 2.699219 -13.648438 2.699219 -10.910156 L 2.699219 -7.976562 C 2.699219 -5.238281 2.699219 -3.363281 2.308594 0 L 8.835938 0 C 8.40625 -3.363281 8.40625 -5.238281 8.40625 -7.976562 L 8.40625 -11.964844 C 12.160156 -16.109375 13.609375 -16.230469 15.757812 -15.5625 C 18.457031 -14.703125 19.90625 -16.347656 19.433594 -18.886719 Z M 19.433594 -18.886719 "/></g></g></g><g fill="#a5d7e8" fill-opacity="1"><g transform="translate(246.738787, 199.025135)"><g><path d="M 16.660156 -18.886719 C 17.167969 -15.015625 17.167969 -13.453125 17.167969 -10.714844 L 17.167969 -5.476562 C 15.757812 -2.699219 13.84375 -0.703125 11.378906 -0.703125 C 9.347656 -0.703125 8.523438 -2.230469 8.523438 -4.964844 L 8.523438 -18.886719 L 2.308594 -18.886719 C 2.816406 -15.015625 2.816406 -13.453125 2.816406 -10.714844 L 2.816406 -6.960938 C 2.816406 -1.328125 5.160156 0.78125 9.152344 0.78125 C 13.179688 0.78125 15.601562 -1.523438 17.089844 -4.183594 C 17.050781 -3.050781 16.933594 -1.757812 16.738281 0 L 22.875 0 L 22.875 -18.886719 Z M 16.660156 -18.886719 "/></g></g></g><g fill="#a5d7e8" fill-opacity="1"><g transform="translate(269.959809, 199.025135)"><g><path d="M 1.71875 -9.425781 C 1.71875 -2.738281 6.6875 0.78125 12.550781 0.78125 C 18.691406 0.78125 21.390625 -3.050781 22.757812 -7.546875 L 22.015625 -7.546875 C 20.804688 -3.363281 18.222656 -0.9375 14.664062 -0.9375 C 9.777344 -0.9375 7.976562 -5.121094 7.976562 -10.089844 C 7.976562 -15.875 9.464844 -18.808594 13.140625 -18.808594 C 16.191406 -18.808594 16.894531 -16.777344 17.167969 -15.054688 C 17.597656 -12.511719 20.414062 -11.886719 21.78125 -13.960938 C 20.921875 -16.933594 17.988281 -19.667969 12.867188 -19.667969 C 6.6875 -19.667969 1.71875 -16.148438 1.71875 -9.425781 Z M 1.71875 -9.425781 "/></g></g></g><g fill="#a5d7e8" fill-opacity="1"><g transform="translate(292.086226, 199.025135)"><g><path d="M 16.347656 -7.976562 C 15.5625 -2.621094 14.273438 -0.507812 12.550781 -0.507812 C 11.105469 -0.507812 10.480469 -1.640625 10.480469 -5.003906 L 10.480469 -18.027344 L 16.191406 -18.027344 L 16.191406 -18.886719 L 6.492188 -18.886719 C 10.402344 -20.453125 11.261719 -23.894531 11.261719 -27.21875 L 6.453125 -27.21875 C 6.453125 -22.757812 6.570312 -18.886719 1.171875 -18.886719 L 0.546875 -18.886719 L 0.546875 -18.027344 L 4.769531 -18.027344 L 4.769531 -5.867188 C 4.769531 -1.289062 6.335938 0.976562 10.441406 0.976562 C 14 0.976562 16.070312 -1.015625 17.050781 -7.976562 Z M 16.347656 -7.976562 "/></g></g></g><g fill="#a5d7e8" fill-opacity="1"><g transform="translate(308.544042, 199.025135)"><g><path d="M 6.0625 -23.03125 L 9.816406 -26.355469 L 6.0625 -29.679688 L 2.308594 -26.355469 Z M 2.816406 -18.886719 C 3.207031 -15.523438 3.207031 -13.648438 3.207031 -10.910156 L 3.207031 -7.976562 C 3.207031 -5.238281 3.207031 -3.363281 2.816406 0 L 9.347656 0 C 8.914062 -3.363281 8.914062 -5.238281 8.914062 -7.976562 L 8.914062 -10.910156 C 8.914062 -13.648438 8.914062 -15.523438 9.347656 -18.886719 Z M 2.816406 -18.886719 "/></g></g></g><g fill="#a5d7e8" fill-opacity="1"><g transform="translate(318.707768, 199.025135)"><g><path d="M 14.078125 0.78125 C 21.117188 0.78125 26.433594 -2.894531 26.433594 -9.425781 C 26.433594 -15.953125 21.117188 -19.667969 14.078125 -19.667969 C 7.078125 -19.667969 1.71875 -15.953125 1.71875 -9.425781 C 1.71875 -2.894531 7.078125 0.78125 14.078125 0.78125 Z M 14.078125 -0.0390625 C 10.050781 -0.0390625 7.976562 -3.285156 7.976562 -9.425781 C 7.976562 -15.601562 10.050781 -18.808594 14.078125 -18.808594 C 18.144531 -18.808594 20.21875 -15.601562 20.21875 -9.425781 C 20.21875 -3.285156 18.144531 -0.0390625 14.078125 -0.0390625 Z M 14.078125 -0.0390625 "/></g></g></g><g fill="#a5d7e8" fill-opacity="1"><g transform="translate(344.939021, 199.025135)"><g><path d="M 16.699219 0 L 23.226562 0 C 22.796875 -3.871094 22.796875 -5.398438 22.796875 -8.132812 L 22.796875 -11.886719 C 22.796875 -17.519531 20.453125 -19.667969 16.464844 -19.667969 C 12.433594 -19.667969 9.972656 -17.324219 8.445312 -14.664062 C 8.523438 -15.914062 8.640625 -17.207031 8.835938 -18.886719 L 2.308594 -18.886719 C 2.699219 -15.523438 2.699219 -13.648438 2.699219 -10.910156 L 2.699219 -7.976562 C 2.699219 -5.238281 2.699219 -3.363281 2.308594 0 L 8.835938 0 C 8.40625 -3.363281 8.40625 -5.238281 8.40625 -7.976562 L 8.40625 -13.296875 C 9.816406 -16.03125 11.769531 -18.144531 14.234375 -18.144531 C 16.230469 -18.144531 17.089844 -16.660156 17.089844 -13.921875 L 17.089844 -8.132812 C 17.089844 -5.398438 17.089844 -3.871094 16.699219 0 Z M 16.699219 0 "/></g></g></g></svg>